<svg width="1015" height="444" viewBox="0 0 1015 444" fill="none" xmlns="http://www.w3.org/2000/svg">
<path d="M1016.33 444L50 444C22.3858 444 0 421.614 0 394V0L1016.33 0V444Z" fill="#FF7F00"/>
<path d="M1016.33 287L0 287V0L1016.33 0V287Z" fill="#9B4D00"/>
<path d="M597.058 254C597.058 259.523 592.581 264 587.058 264H554.768C549.245 264 544.768 259.523 544.768 254V205C544.768 199.477 549.245 195 554.768 195H587.058C592.581 195 597.058 199.477 597.058 205V254Z" fill="#FF7F00"/>
<path d="M597.058 254C597.058 259.523 592.581 264 587.058 264H554.768C549.245 264 544.768 259.523 544.768 254V205C544.768 199.477 549.245 195 554.768 195H587.058C592.581 195 597.058 199.477 597.058 205V254Z" fill="black" fill-opacity="0.08"/>
<rect x="752.978" y="237" width="52.2901" height="69" rx="10" transform="rotate(-180 752.978 237)" fill="#FF7F00"/>
<rect x="752.978" y="237" width="52.2901" height="69" rx="10" transform="rotate(-180 752.978 237)" fill="black" fill-opacity="0.08"/>
<rect x="929.814" y="207" width="52.2901" height="69" rx="10" transform="rotate(-180 929.814 207)" fill="#FF7F00"/>
<rect x="929.814" y="207" width="52.2901" height="69" rx="10" transform="rotate(-180 929.814 207)" fill="black" fill-opacity="0.08"/>
<rect x="663.609" y="216" width="33.2755" height="27" rx="10" transform="rotate(-180 663.609 216)" fill="#FF7F00"/>
<rect x="663.609" y="216" width="33.2755" height="27" rx="10" transform="rotate(-180 663.609 216)" fill="black" fill-opacity="0.08"/>
<rect x="673.117" y="143" width="33.2755" height="27" rx="10" transform="rotate(-180 673.117 143)" fill="#FF7F00"/>
<rect x="673.117" y="143" width="33.2755" height="27" rx="10" transform="rotate(-180 673.117 143)" fill="black" fill-opacity="0.08"/>
<rect x="810.022" y="209" width="33.2755" height="27" rx="10" transform="rotate(-180 810.022 209)" fill="#FF7F00"/>
<rect x="810.022" y="209" width="33.2755" height="27" rx="10" transform="rotate(-180 810.022 209)" fill="black" fill-opacity="0.08"/>
<rect x="885.13" y="266" width="33.2755" height="27" rx="10" transform="rotate(-180 885.13 266)" fill="#FF7F00"/>
<rect x="885.13" y="266" width="33.2755" height="27" rx="10" transform="rotate(-180 885.13 266)" fill="black" fill-opacity="0.08"/>
<rect x="851.854" y="136" width="33.2755" height="27" rx="10" transform="rotate(-180 851.854 136)" fill="#FF7F00"/>
<rect x="851.854" y="136" width="33.2755" height="27" rx="10" transform="rotate(-180 851.854 136)" fill="black" fill-opacity="0.08"/>
<rect x="885.13" y="65" width="33.2755" height="27" rx="10" transform="rotate(-180 885.13 65)" fill="#FF7F00"/>
<rect x="885.13" y="65" width="33.2755" height="27" rx="10" transform="rotate(-180 885.13 65)" fill="black" fill-opacity="0.08"/>
<rect x="945.026" y="249" width="33.2755" height="27" rx="10" transform="rotate(-180 945.026 249)" fill="#FF7F00"/>
<rect x="945.026" y="249" width="33.2755" height="27" rx="10" transform="rotate(-180 945.026 249)" fill="black" fill-opacity="0.08"/>
<rect x="952.631" y="95" width="40.8814" height="48" rx="10" transform="rotate(-180 952.631 95)" fill="#FF7F00"/>
<rect x="952.631" y="95" width="40.8814" height="48" rx="10" transform="rotate(-180 952.631 95)" fill="black" fill-opacity="0.08"/>
<rect x="1016.33" y="152" width="33.2755" height="27" rx="10" transform="rotate(-180 1016.33 152)" fill="#FF7F00"/>
<rect x="1016.33" y="152" width="33.2755" height="27" rx="10" transform="rotate(-180 1016.33 152)" fill="black" fill-opacity="0.08"/>
<rect x="1005.87" y="229" width="44.6843" height="53" rx="10" transform="rotate(-180 1005.87 229)" fill="#FF7F00"/>
<rect x="1005.87" y="229" width="44.6843" height="53" rx="10" transform="rotate(-180 1005.87 229)" fill="black" fill-opacity="0.08"/>
<rect x="793.859" y="134" width="33.2755" height="27" rx="10" transform="rotate(-180 793.859 134)" fill="#FF7F00"/>
<rect x="793.859" y="134" width="33.2755" height="27" rx="10" transform="rotate(-180 793.859 134)" fill="black" fill-opacity="0.08"/>
<rect x="733.964" y="151" width="18.0639" height="15" rx="7.5" transform="rotate(-180 733.964 151)" fill="#FF7F00"/>
<rect x="733.964" y="151" width="18.0639" height="15" rx="7.5" transform="rotate(-180 733.964 151)" fill="black" fill-opacity="0.08"/>
<rect x="861.361" y="216" width="35.177" height="46" rx="10" transform="rotate(-180 861.361 216)" fill="#FF7F00"/>
<rect x="861.361" y="216" width="35.177" height="46" rx="10" transform="rotate(-180 861.361 216)" fill="black" fill-opacity="0.08"/>
<rect x="929.814" y="129" width="18.0639" height="15" rx="7.5" transform="rotate(-180 929.814 129)" fill="#FF7F00"/>
<rect x="929.814" y="129" width="18.0639" height="15" rx="7.5" transform="rotate(-180 929.814 129)" fill="black" fill-opacity="0.08"/>
<rect x="961.188" y="152" width="18.0639" height="15" rx="7.5" transform="rotate(-180 961.188 152)" fill="#FF7F00"/>
<rect x="961.188" y="152" width="18.0639" height="15" rx="7.5" transform="rotate(-180 961.188 152)" fill="black" fill-opacity="0.08"/>
<rect x="895.588" y="95" width="18.0639" height="15" rx="7.5" transform="rotate(-180 895.588 95)" fill="#FF7F00"/>
<rect x="895.588" y="95" width="18.0639" height="15" rx="7.5" transform="rotate(-180 895.588 95)" fill="black" fill-opacity="0.08"/>
<rect x="802.416" y="252" width="18.0639" height="15" rx="7.5" transform="rotate(-180 802.416 252)" fill="#FF7F00"/>
<rect x="802.416" y="252" width="18.0639" height="15" rx="7.5" transform="rotate(-180 802.416 252)" fill="black" fill-opacity="0.08"/>
<rect x="735.865" y="267" width="18.0639" height="15" rx="7.5" transform="rotate(-180 735.865 267)" fill="#FF7F00"/>
<rect x="735.865" y="267" width="18.0639" height="15" rx="7.5" transform="rotate(-180 735.865 267)" fill="black" fill-opacity="0.08"/>
<rect x="681.673" y="257" width="18.0639" height="15" rx="7.5" transform="rotate(-180 681.673 257)" fill="#FF7F00"/>
<rect x="681.673" y="257" width="18.0639" height="15" rx="7.5" transform="rotate(-180 681.673 257)" fill="black" fill-opacity="0.08"/>
<rect x="630.334" y="279" width="18.0639" height="15" rx="7.5" transform="rotate(-180 630.334 279)" fill="#FF7F00"/>
<rect x="630.334" y="279" width="18.0639" height="15" rx="7.5" transform="rotate(-180 630.334 279)" fill="black" fill-opacity="0.08"/>
<rect x="621.777" y="170" width="18.0639" height="15" rx="7.5" transform="rotate(-180 621.777 170)" fill="#FF7F00"/>
<rect x="621.777" y="170" width="18.0639" height="15" rx="7.5" transform="rotate(-180 621.777 170)" fill="black" fill-opacity="0.08"/>
<rect x="576.142" y="167" width="31.3741" height="55" rx="10" transform="rotate(-180 576.142 167)" fill="#FF7F00"/>
<rect x="576.142" y="167" width="31.3741" height="55" rx="10" transform="rotate(-180 576.142 167)" fill="black" fill-opacity="0.08"/>
<rect x="630.334" y="95" width="54.1916" height="72" rx="10" transform="rotate(-180 630.334 95)" fill="#FF7F00"/>
<rect x="630.334" y="95" width="54.1916" height="72" rx="10" transform="rotate(-180 630.334 95)" fill="black" fill-opacity="0.08"/>
<rect x="835.692" y="23" width="57" height="68.4526" rx="10" transform="rotate(90 835.692 23)" fill="#FF7F00"/>
<rect x="835.692" y="23" width="57" height="68.4526" rx="10" transform="rotate(90 835.692 23)" fill="black" fill-opacity="0.08"/>
<rect x="727.308" y="107" width="38.0292" height="53" rx="10" transform="rotate(-180 727.308 107)" fill="#FF7F00"/>
<rect x="727.308" y="107" width="38.0292" height="53" rx="10" transform="rotate(-180 727.308 107)" fill="black" fill-opacity="0.08"/>
<rect x="1042" y="80" width="52.2901" height="40" rx="10" transform="rotate(-180 1042 80)" fill="#FF7F00"/>
<rect x="1042" y="80" width="52.2901" height="40" rx="10" transform="rotate(-180 1042 80)" fill="black" fill-opacity="0.08"/>
</svg>
