<svg width="1440" height="601" viewBox="0 0 1440 601" fill="none" xmlns="http://www.w3.org/2000/svg">
<path d="M1441.33 601L475 601C447.386 601 425 578.614 425 551V157L1441.33 157V601Z" fill="#FF7F00"/>
<path d="M1441.33 444L425 444V157L1441.33 157V444Z" fill="#9B4D00"/>
<path d="M1022.06 411C1022.06 416.523 1017.58 421 1012.06 421H979.768C974.245 421 969.768 416.523 969.768 411V362C969.768 356.477 974.245 352 979.768 352H1012.06C1017.58 352 1022.06 356.477 1022.06 362V411Z" fill="#FF7F00"/>
<path d="M1022.06 411C1022.06 416.523 1017.58 421 1012.06 421H979.768C974.245 421 969.768 416.523 969.768 411V362C969.768 356.477 974.245 352 979.768 352H1012.06C1017.58 352 1022.06 356.477 1022.06 362V411Z" fill="black" fill-opacity="0.08"/>
<rect x="1177.98" y="394" width="52.2901" height="69" rx="10" transform="rotate(-180 1177.98 394)" fill="#FF7F00"/>
<rect x="1177.98" y="394" width="52.2901" height="69" rx="10" transform="rotate(-180 1177.98 394)" fill="black" fill-opacity="0.08"/>
<rect x="1354.81" y="364" width="52.2901" height="69" rx="10" transform="rotate(-180 1354.81 364)" fill="#FF7F00"/>
<rect x="1354.81" y="364" width="52.2901" height="69" rx="10" transform="rotate(-180 1354.81 364)" fill="black" fill-opacity="0.08"/>
<rect x="1088.61" y="373" width="33.2755" height="27" rx="10" transform="rotate(-180 1088.61 373)" fill="#FF7F00"/>
<rect x="1088.61" y="373" width="33.2755" height="27" rx="10" transform="rotate(-180 1088.61 373)" fill="black" fill-opacity="0.08"/>
<rect x="1098.12" y="300" width="33.2755" height="27" rx="10" transform="rotate(-180 1098.12 300)" fill="#FF7F00"/>
<rect x="1098.12" y="300" width="33.2755" height="27" rx="10" transform="rotate(-180 1098.12 300)" fill="black" fill-opacity="0.08"/>
<rect x="1235.02" y="366" width="33.2755" height="27" rx="10" transform="rotate(-180 1235.02 366)" fill="#FF7F00"/>
<rect x="1235.02" y="366" width="33.2755" height="27" rx="10" transform="rotate(-180 1235.02 366)" fill="black" fill-opacity="0.08"/>
<rect x="1310.13" y="423" width="33.2755" height="27" rx="10" transform="rotate(-180 1310.13 423)" fill="#FF7F00"/>
<rect x="1310.13" y="423" width="33.2755" height="27" rx="10" transform="rotate(-180 1310.13 423)" fill="black" fill-opacity="0.08"/>
<rect x="1276.85" y="293" width="33.2755" height="27" rx="10" transform="rotate(-180 1276.85 293)" fill="#FF7F00"/>
<rect x="1276.85" y="293" width="33.2755" height="27" rx="10" transform="rotate(-180 1276.85 293)" fill="black" fill-opacity="0.08"/>
<rect x="1310.13" y="222" width="33.2755" height="27" rx="10" transform="rotate(-180 1310.13 222)" fill="#FF7F00"/>
<rect x="1310.13" y="222" width="33.2755" height="27" rx="10" transform="rotate(-180 1310.13 222)" fill="black" fill-opacity="0.08"/>
<rect x="1370.03" y="406" width="33.2755" height="27" rx="10" transform="rotate(-180 1370.03 406)" fill="#FF7F00"/>
<rect x="1370.03" y="406" width="33.2755" height="27" rx="10" transform="rotate(-180 1370.03 406)" fill="black" fill-opacity="0.08"/>
<rect x="1377.63" y="252" width="40.8814" height="48" rx="10" transform="rotate(-180 1377.63 252)" fill="#FF7F00"/>
<rect x="1377.63" y="252" width="40.8814" height="48" rx="10" transform="rotate(-180 1377.63 252)" fill="black" fill-opacity="0.08"/>
<rect x="1441.33" y="309" width="33.2755" height="27" rx="10" transform="rotate(-180 1441.33 309)" fill="#FF7F00"/>
<rect x="1441.33" y="309" width="33.2755" height="27" rx="10" transform="rotate(-180 1441.33 309)" fill="black" fill-opacity="0.08"/>
<rect x="1430.87" y="386" width="44.6843" height="53" rx="10" transform="rotate(-180 1430.87 386)" fill="#FF7F00"/>
<rect x="1430.87" y="386" width="44.6843" height="53" rx="10" transform="rotate(-180 1430.87 386)" fill="black" fill-opacity="0.08"/>
<rect x="1218.86" y="291" width="33.2755" height="27" rx="10" transform="rotate(-180 1218.86 291)" fill="#FF7F00"/>
<rect x="1218.86" y="291" width="33.2755" height="27" rx="10" transform="rotate(-180 1218.86 291)" fill="black" fill-opacity="0.08"/>
<rect x="1158.96" y="308" width="18.0639" height="15" rx="7.5" transform="rotate(-180 1158.96 308)" fill="#FF7F00"/>
<rect x="1158.96" y="308" width="18.0639" height="15" rx="7.5" transform="rotate(-180 1158.96 308)" fill="black" fill-opacity="0.08"/>
<rect x="1286.36" y="373" width="35.177" height="46" rx="10" transform="rotate(-180 1286.36 373)" fill="#FF7F00"/>
<rect x="1286.36" y="373" width="35.177" height="46" rx="10" transform="rotate(-180 1286.36 373)" fill="black" fill-opacity="0.08"/>
<rect x="1354.81" y="286" width="18.0639" height="15" rx="7.5" transform="rotate(-180 1354.81 286)" fill="#FF7F00"/>
<rect x="1354.81" y="286" width="18.0639" height="15" rx="7.5" transform="rotate(-180 1354.81 286)" fill="black" fill-opacity="0.08"/>
<rect x="1386.19" y="309" width="18.0639" height="15" rx="7.5" transform="rotate(-180 1386.19 309)" fill="#FF7F00"/>
<rect x="1386.19" y="309" width="18.0639" height="15" rx="7.5" transform="rotate(-180 1386.19 309)" fill="black" fill-opacity="0.08"/>
<rect x="1320.59" y="252" width="18.0639" height="15" rx="7.5" transform="rotate(-180 1320.59 252)" fill="#FF7F00"/>
<rect x="1320.59" y="252" width="18.0639" height="15" rx="7.5" transform="rotate(-180 1320.59 252)" fill="black" fill-opacity="0.08"/>
<rect x="1227.42" y="409" width="18.0639" height="15" rx="7.5" transform="rotate(-180 1227.42 409)" fill="#FF7F00"/>
<rect x="1227.42" y="409" width="18.0639" height="15" rx="7.5" transform="rotate(-180 1227.42 409)" fill="black" fill-opacity="0.08"/>
<rect x="1160.86" y="424" width="18.0639" height="15" rx="7.5" transform="rotate(-180 1160.86 424)" fill="#FF7F00"/>
<rect x="1160.86" y="424" width="18.0639" height="15" rx="7.5" transform="rotate(-180 1160.86 424)" fill="black" fill-opacity="0.08"/>
<rect x="1106.67" y="414" width="18.0639" height="15" rx="7.5" transform="rotate(-180 1106.67 414)" fill="#FF7F00"/>
<rect x="1106.67" y="414" width="18.0639" height="15" rx="7.5" transform="rotate(-180 1106.67 414)" fill="black" fill-opacity="0.08"/>
<rect x="1055.33" y="436" width="18.0639" height="15" rx="7.5" transform="rotate(-180 1055.33 436)" fill="#FF7F00"/>
<rect x="1055.33" y="436" width="18.0639" height="15" rx="7.5" transform="rotate(-180 1055.33 436)" fill="black" fill-opacity="0.08"/>
<rect x="1046.78" y="327" width="18.0639" height="15" rx="7.5" transform="rotate(-180 1046.78 327)" fill="#FF7F00"/>
<rect x="1046.78" y="327" width="18.0639" height="15" rx="7.5" transform="rotate(-180 1046.78 327)" fill="black" fill-opacity="0.08"/>
<rect x="1001.14" y="324" width="31.3741" height="55" rx="10" transform="rotate(-180 1001.14 324)" fill="#FF7F00"/>
<rect x="1001.14" y="324" width="31.3741" height="55" rx="10" transform="rotate(-180 1001.14 324)" fill="black" fill-opacity="0.08"/>
<rect x="1055.33" y="252" width="54.1916" height="72" rx="10" transform="rotate(-180 1055.33 252)" fill="#FF7F00"/>
<rect x="1055.33" y="252" width="54.1916" height="72" rx="10" transform="rotate(-180 1055.33 252)" fill="black" fill-opacity="0.08"/>
<rect x="1260.69" y="180" width="57" height="68.4526" rx="10" transform="rotate(90 1260.69 180)" fill="#FF7F00"/>
<rect x="1260.69" y="180" width="57" height="68.4526" rx="10" transform="rotate(90 1260.69 180)" fill="black" fill-opacity="0.08"/>
<rect x="1152.31" y="264" width="38.0292" height="53" rx="10" transform="rotate(-180 1152.31 264)" fill="#FF7F00"/>
<rect x="1152.31" y="264" width="38.0292" height="53" rx="10" transform="rotate(-180 1152.31 264)" fill="black" fill-opacity="0.08"/>
<rect x="1467" y="237" width="52.2901" height="40" rx="10" transform="rotate(-180 1467 237)" fill="#FF7F00"/>
<rect x="1467" y="237" width="52.2901" height="40" rx="10" transform="rotate(-180 1467 237)" fill="black" fill-opacity="0.08"/>
<path d="M-4 0H1015C1042.61 0 1065 22.3858 1065 50V444H-4V0Z" fill="#FF7F00"/>
<path d="M-4 157H1065V444H-4V157Z" fill="#9B4D00"/>
<path d="M437 190C437 184.477 441.477 180 447 180H482C487.523 180 492 184.477 492 190V239C492 244.523 487.523 249 482 249H447C441.477 249 437 244.523 437 239V190Z" fill="#FF7F00"/>
<path d="M437 190C437 184.477 441.477 180 447 180H482C487.523 180 492 184.477 492 190V239C492 244.523 487.523 249 482 249H447C441.477 249 437 244.523 437 239V190Z" fill="black" fill-opacity="0.08"/>
<rect x="273" y="207" width="55" height="69" rx="10" fill="#FF7F00"/>
<rect x="273" y="207" width="55" height="69" rx="10" fill="black" fill-opacity="0.08"/>
<rect x="87" y="237" width="55" height="69" rx="10" fill="#FF7F00"/>
<rect x="87" y="237" width="55" height="69" rx="10" fill="black" fill-opacity="0.08"/>
<rect x="367" y="228" width="35" height="27" rx="10" fill="#FF7F00"/>
<rect x="367" y="228" width="35" height="27" rx="10" fill="black" fill-opacity="0.08"/>
<rect x="357" y="301" width="35" height="27" rx="10" fill="#FF7F00"/>
<rect x="357" y="301" width="35" height="27" rx="10" fill="black" fill-opacity="0.08"/>
<rect x="213" y="235" width="35" height="27" rx="10" fill="#FF7F00"/>
<rect x="213" y="235" width="35" height="27" rx="10" fill="black" fill-opacity="0.08"/>
<rect x="134" y="178" width="35" height="27" rx="10" fill="#FF7F00"/>
<rect x="134" y="178" width="35" height="27" rx="10" fill="black" fill-opacity="0.08"/>
<rect x="169" y="308" width="35" height="27" rx="10" fill="#FF7F00"/>
<rect x="169" y="308" width="35" height="27" rx="10" fill="black" fill-opacity="0.08"/>
<rect x="134" y="379" width="35" height="27" rx="10" fill="#FF7F00"/>
<rect x="134" y="379" width="35" height="27" rx="10" fill="black" fill-opacity="0.08"/>
<rect x="71" y="195" width="35" height="27" rx="10" fill="#FF7F00"/>
<rect x="71" y="195" width="35" height="27" rx="10" fill="black" fill-opacity="0.08"/>
<rect x="63" y="349" width="43" height="48" rx="10" fill="#FF7F00"/>
<rect x="63" y="349" width="43" height="48" rx="10" fill="black" fill-opacity="0.08"/>
<rect x="-4" y="292" width="35" height="27" rx="10" fill="#FF7F00"/>
<rect x="-4" y="292" width="35" height="27" rx="10" fill="black" fill-opacity="0.08"/>
<rect x="7" y="215" width="47" height="53" rx="10" fill="#FF7F00"/>
<rect x="7" y="215" width="47" height="53" rx="10" fill="black" fill-opacity="0.08"/>
<rect x="230" y="310" width="35" height="27" rx="10" fill="#FF7F00"/>
<rect x="230" y="310" width="35" height="27" rx="10" fill="black" fill-opacity="0.08"/>
<rect x="293" y="293" width="19" height="15" rx="7.5" fill="#FF7F00"/>
<rect x="293" y="293" width="19" height="15" rx="7.5" fill="black" fill-opacity="0.08"/>
<rect x="159" y="228" width="37" height="46" rx="10" fill="#FF7F00"/>
<rect x="159" y="228" width="37" height="46" rx="10" fill="black" fill-opacity="0.08"/>
<rect x="87" y="315" width="19" height="15" rx="7.5" fill="#FF7F00"/>
<rect x="87" y="315" width="19" height="15" rx="7.5" fill="black" fill-opacity="0.08"/>
<rect x="54" y="292" width="19" height="15" rx="7.5" fill="#FF7F00"/>
<rect x="54" y="292" width="19" height="15" rx="7.5" fill="black" fill-opacity="0.08"/>
<rect x="123" y="349" width="19" height="15" rx="7.5" fill="#FF7F00"/>
<rect x="123" y="349" width="19" height="15" rx="7.5" fill="black" fill-opacity="0.08"/>
<rect x="221" y="192" width="19" height="15" rx="7.5" fill="#FF7F00"/>
<rect x="221" y="192" width="19" height="15" rx="7.5" fill="black" fill-opacity="0.08"/>
<rect x="291" y="177" width="19" height="15" rx="7.5" fill="#FF7F00"/>
<rect x="291" y="177" width="19" height="15" rx="7.5" fill="black" fill-opacity="0.08"/>
<rect x="348" y="187" width="19" height="15" rx="7.5" fill="#FF7F00"/>
<rect x="348" y="187" width="19" height="15" rx="7.5" fill="black" fill-opacity="0.08"/>
<rect x="402" y="165" width="19" height="15" rx="7.5" fill="#FF7F00"/>
<rect x="402" y="165" width="19" height="15" rx="7.5" fill="black" fill-opacity="0.08"/>
<rect x="411" y="274" width="19" height="15" rx="7.5" fill="#FF7F00"/>
<rect x="411" y="274" width="19" height="15" rx="7.5" fill="black" fill-opacity="0.08"/>
<rect x="459" y="277" width="33" height="55" rx="10" fill="#FF7F00"/>
<rect x="459" y="277" width="33" height="55" rx="10" fill="black" fill-opacity="0.08"/>
<rect x="402" y="349" width="57" height="72" rx="10" fill="#FF7F00"/>
<rect x="402" y="349" width="57" height="72" rx="10" fill="black" fill-opacity="0.08"/>
<rect x="186" y="421" width="57" height="72" rx="10" transform="rotate(-90 186 421)" fill="#FF7F00"/>
<rect x="186" y="421" width="57" height="72" rx="10" transform="rotate(-90 186 421)" fill="black" fill-opacity="0.08"/>
<rect x="300" y="337" width="40" height="53" rx="10" fill="#FF7F00"/>
<rect x="300" y="337" width="40" height="53" rx="10" fill="black" fill-opacity="0.08"/>
<rect x="-31" y="364" width="55" height="40" rx="10" fill="#FF7F00"/>
<rect x="-31" y="364" width="55" height="40" rx="10" fill="black" fill-opacity="0.08"/>
</svg>
