<svg width="1065" height="444" viewBox="0 0 1065 444" fill="none" xmlns="http://www.w3.org/2000/svg">
<path d="M-4 0H1015C1042.61 0 1065 22.3858 1065 50V444H-4V0Z" fill="#FF7F00"/>
<path d="M-4 157H1065V444H-4V157Z" fill="#9B4D00"/>
<path d="M437 190C437 184.477 441.477 180 447 180H482C487.523 180 492 184.477 492 190V239C492 244.523 487.523 249 482 249H447C441.477 249 437 244.523 437 239V190Z" fill="#FF7F00"/>
<path d="M437 190C437 184.477 441.477 180 447 180H482C487.523 180 492 184.477 492 190V239C492 244.523 487.523 249 482 249H447C441.477 249 437 244.523 437 239V190Z" fill="black" fill-opacity="0.08"/>
<rect x="273" y="207" width="55" height="69" rx="10" fill="#FF7F00"/>
<rect x="273" y="207" width="55" height="69" rx="10" fill="black" fill-opacity="0.08"/>
<rect x="87" y="237" width="55" height="69" rx="10" fill="#FF7F00"/>
<rect x="87" y="237" width="55" height="69" rx="10" fill="black" fill-opacity="0.08"/>
<rect x="367" y="228" width="35" height="27" rx="10" fill="#FF7F00"/>
<rect x="367" y="228" width="35" height="27" rx="10" fill="black" fill-opacity="0.08"/>
<rect x="357" y="301" width="35" height="27" rx="10" fill="#FF7F00"/>
<rect x="357" y="301" width="35" height="27" rx="10" fill="black" fill-opacity="0.08"/>
<rect x="213" y="235" width="35" height="27" rx="10" fill="#FF7F00"/>
<rect x="213" y="235" width="35" height="27" rx="10" fill="black" fill-opacity="0.08"/>
<rect x="134" y="178" width="35" height="27" rx="10" fill="#FF7F00"/>
<rect x="134" y="178" width="35" height="27" rx="10" fill="black" fill-opacity="0.08"/>
<rect x="169" y="308" width="35" height="27" rx="10" fill="#FF7F00"/>
<rect x="169" y="308" width="35" height="27" rx="10" fill="black" fill-opacity="0.08"/>
<rect x="134" y="379" width="35" height="27" rx="10" fill="#FF7F00"/>
<rect x="134" y="379" width="35" height="27" rx="10" fill="black" fill-opacity="0.08"/>
<rect x="71" y="195" width="35" height="27" rx="10" fill="#FF7F00"/>
<rect x="71" y="195" width="35" height="27" rx="10" fill="black" fill-opacity="0.08"/>
<rect x="63" y="349" width="43" height="48" rx="10" fill="#FF7F00"/>
<rect x="63" y="349" width="43" height="48" rx="10" fill="black" fill-opacity="0.08"/>
<rect x="-4" y="292" width="35" height="27" rx="10" fill="#FF7F00"/>
<rect x="-4" y="292" width="35" height="27" rx="10" fill="black" fill-opacity="0.08"/>
<rect x="7" y="215" width="47" height="53" rx="10" fill="#FF7F00"/>
<rect x="7" y="215" width="47" height="53" rx="10" fill="black" fill-opacity="0.08"/>
<rect x="230" y="310" width="35" height="27" rx="10" fill="#FF7F00"/>
<rect x="230" y="310" width="35" height="27" rx="10" fill="black" fill-opacity="0.08"/>
<rect x="293" y="293" width="19" height="15" rx="7.5" fill="#FF7F00"/>
<rect x="293" y="293" width="19" height="15" rx="7.5" fill="black" fill-opacity="0.08"/>
<rect x="159" y="228" width="37" height="46" rx="10" fill="#FF7F00"/>
<rect x="159" y="228" width="37" height="46" rx="10" fill="black" fill-opacity="0.08"/>
<rect x="87" y="315" width="19" height="15" rx="7.5" fill="#FF7F00"/>
<rect x="87" y="315" width="19" height="15" rx="7.5" fill="black" fill-opacity="0.08"/>
<rect x="54" y="292" width="19" height="15" rx="7.5" fill="#FF7F00"/>
<rect x="54" y="292" width="19" height="15" rx="7.5" fill="black" fill-opacity="0.08"/>
<rect x="123" y="349" width="19" height="15" rx="7.5" fill="#FF7F00"/>
<rect x="123" y="349" width="19" height="15" rx="7.5" fill="black" fill-opacity="0.08"/>
<rect x="221" y="192" width="19" height="15" rx="7.5" fill="#FF7F00"/>
<rect x="221" y="192" width="19" height="15" rx="7.5" fill="black" fill-opacity="0.08"/>
<rect x="291" y="177" width="19" height="15" rx="7.5" fill="#FF7F00"/>
<rect x="291" y="177" width="19" height="15" rx="7.5" fill="black" fill-opacity="0.08"/>
<rect x="348" y="187" width="19" height="15" rx="7.5" fill="#FF7F00"/>
<rect x="348" y="187" width="19" height="15" rx="7.5" fill="black" fill-opacity="0.08"/>
<rect x="402" y="165" width="19" height="15" rx="7.5" fill="#FF7F00"/>
<rect x="402" y="165" width="19" height="15" rx="7.5" fill="black" fill-opacity="0.08"/>
<rect x="411" y="274" width="19" height="15" rx="7.5" fill="#FF7F00"/>
<rect x="411" y="274" width="19" height="15" rx="7.5" fill="black" fill-opacity="0.08"/>
<rect x="459" y="277" width="33" height="55" rx="10" fill="#FF7F00"/>
<rect x="459" y="277" width="33" height="55" rx="10" fill="black" fill-opacity="0.08"/>
<rect x="402" y="349" width="57" height="72" rx="10" fill="#FF7F00"/>
<rect x="402" y="349" width="57" height="72" rx="10" fill="black" fill-opacity="0.08"/>
<rect x="186" y="421" width="57" height="72" rx="10" transform="rotate(-90 186 421)" fill="#FF7F00"/>
<rect x="186" y="421" width="57" height="72" rx="10" transform="rotate(-90 186 421)" fill="black" fill-opacity="0.08"/>
<rect x="300" y="337" width="40" height="53" rx="10" fill="#FF7F00"/>
<rect x="300" y="337" width="40" height="53" rx="10" fill="black" fill-opacity="0.08"/>
<rect x="-31" y="364" width="55" height="40" rx="10" fill="#FF7F00"/>
<rect x="-31" y="364" width="55" height="40" rx="10" fill="black" fill-opacity="0.08"/>
</svg>
